<svg version="1.2" xmlns="http://www.w3.org/2000/svg" viewBox="0 0 1500 1000" width="1500" height="1000">
	<title>2824235-ai</title>
	<style>
		tspan { white-space:pre } 
		.s0 { fill: #f8e5c4 } 
		.s1 { fill: #edd2a4 } 
		.s2 { fill: none;stroke: #edd2a4;stroke-width: 2.1 } 
		.s3 { fill: #874f2e } 
		.s4 { fill: #ad6e47 } 
		.s5 { fill: none;stroke: #704226;stroke-width: 1.6 } 
		.s6 { fill: #ffabab } 
		.s7 { opacity: .2;fill: #000000 } 
		.s8 { fill: #3593bf } 
		.s9 { fill: #2d7ea3 } 
		.t10 { font-size: 30px;fill: #ffffff;font-weight: 700;font-family: "OpenSans-Bold", "Open Sans" } 
		.s11 { fill: #704226 } 
		.s12 { fill: #ffffff } 
		.s13 { fill: #e3e3e3 } 
		.s14 { fill: #f86c6c } 
		.s15 { fill: #a63b3b } 
		.s16 { fill: #38856d } 
		.s17 { fill: #286150 } 
		.s18 { fill: none;stroke: #286150;stroke-linecap: round;stroke-linejoin: round;stroke-width: 2.1 } 
		.s19 { fill: #b85050 } 
		.s20 { fill: #638296 } 
		.s21 { fill: #313f4a } 
		.s22 { fill: none;stroke: #313f4a;stroke-linecap: round;stroke-linejoin: round;stroke-width: 2.1 } 
		.s23 { fill: #53786b } 
		.s24 { fill: none;stroke: #a63b3b;stroke-linecap: round;stroke-width: 1.6 } 
		.s25 { fill: #7a2c2c } 
		.s26 { fill: none;stroke: #16367c;stroke-width: 1.5 } 
		.s27 { fill: #f59d00 } 
		.t28 { font-size: 36px;fill: #ffffff;font-weight: 700;font-family: "OpenSans-Bold", "Open Sans" } 
		.t29 { font-size: 17px;fill: #ffffff;font-weight: 700;font-family: "OpenSans-Bold", "Open Sans" } 
		.s30 { fill: #4d4d4d } 
		.s31 { fill: #7d7d7d } 
		.s32 { fill: #000000 } 
		.s33 { fill: #657c8f } 
		.s34 { fill: none;stroke: #657c8f;stroke-width: 2.1 } 
		.s35 { fill: #999c48 } 
		.s36 { fill: none;stroke: #313f4a;stroke-width: 2.1 } 
		.s37 { fill: #6d9c8b } 
		.s38 { fill: #27323b } 
	</style>
	<g id="OBJECTS">
		<g id="&lt;Group&gt;">
			<g id="&lt;Group&gt;">
				<path id="&lt;Path&gt;" class="s0" d="m360.2 398.4c66.4-131.9 292.8-212 562.5-133 269.7 79.1 280 292.4 364.9 381.7 84.9 89.4 55.2 174.5 55.2 174.5h-1222.6c-74.2-271.1 173.6-291.3 240-423.2z"/>
				<path id="&lt;Path&gt;" class="s1" d="m120.2 821.6c-59.1-216 86.2-272.7 181.3-353.6 57.2 19.4 134.7 56.6 166.6 121.8 53.3 109.1 285.6-27.9 398.2 68.5 112.6 96.4 175 144 292.8 124.7 77.2-12.7 123.9-59.8 166.5-83.9 36.3 67.7 17.2 122.5 17.2 122.5z"/>
				<path id="&lt;Path&gt;" class="s2" d="m56.6 821.6h1345.6"/>
			</g>
			<g id="&lt;Group&gt;">
				<path id="&lt;Path&gt;" class="s3" d="m649.6 842.2h-245.8v-286.5h245.8z"/>
				<path id="&lt;Path&gt;" class="s4" d="m649.6 842.2h-85.4v-286.5h85.4z"/>
				<g id="&lt;Group&gt;">
					<path id="&lt;Path&gt;" class="s5" d="m616.2 583.4h-18.5c-3.1 0-5.6-2.5-5.6-5.6v-0.2h29.7v0.2c0 3.1-2.5 5.6-5.6 5.6z"/>
					<path id="&lt;Path&gt;" class="s5" d="m649.6 627.3h-245.8"/>
				</g>
				<g id="&lt;Group&gt;">
					<path id="&lt;Path&gt;" class="s5" d="m616.2 655h-18.5c-3.1 0-5.6-2.5-5.6-5.5v-0.3h29.7v0.3c0 3-2.5 5.5-5.6 5.5z"/>
					<path id="&lt;Path&gt;" class="s5" d="m649.6 698.9h-245.8"/>
				</g>
				<g id="&lt;Group&gt;">
					<path id="&lt;Path&gt;" class="s5" d="m616.2 726.6h-18.5c-3.1 0-5.6-2.4-5.6-5.5v-0.2h29.7v0.2c0 3.1-2.5 5.5-5.6 5.5z"/>
					<path id="&lt;Path&gt;" class="s5" d="m649.6 770.5h-245.8"/>
				</g>
				<g id="&lt;Group&gt;">
					<path id="&lt;Path&gt;" class="s5" d="m616.2 798.3h-18.5c-3.1 0-5.6-2.5-5.6-5.6v-0.2h29.7v0.2c0 3.1-2.5 5.6-5.6 5.6z"/>
				</g>
			</g>
			<path id="&lt;Path&gt;" class="s6" d="m1173.4 398.4c0 134.3-108.8 243.2-243.1 243.2-134.3 0-243.1-108.9-243.1-243.2 0-134.3 108.8-243.1 243.1-243.1 134.3 0 243.1 108.8 243.1 243.1z"/>
			<g id="&lt;Group&gt;">
				<path id="&lt;Path&gt;" class="s7" d="m1266.1 480.2h-182v-80.2h182z"/>
				<path id="&lt;Path&gt;" class="s8" d="m1261.4 474.7h-182v-80.1h182z"/>
				<path id="&lt;Path&gt;" class="s9" d="m1101.5 474.7h-22.1v-80.1h39.9z"/>
				<text id="css
" style="transform: matrix(2,0,0,2,1119.263,450.04)" >
					<tspan x="0" y="0" class="t10" dx="0 2 2 2" >css
</tspan>
				</text>
			</g>
			<g id="&lt;Group&gt;">
				<path id="&lt;Path&gt;" class="s4" d="m962 839.8h-9.8l-2.2-253.9h14.3z"/>
				<path id="&lt;Path&gt;" class="s3" d="m978.9 754.7h-43.5l7.7-18.9h28.1z"/>
				<path id="&lt;Path&gt;" class="s11" d="m970.5 770.2c-1.1 2-3.2 3.3-5.5 3.3h-15.8c-2.3 0-4.4-1.3-5.4-3.3l-8.4-15.5h43.5z"/>
				<g id="&lt;Group&gt;">
					<path id="&lt;Path&gt;" class="s4" d="m1029.2 839.8h-10.4l-52.7-104h7.5c5.2 0 9.8 3 11.9 7.7z"/>
					<path id="&lt;Path&gt;" class="s4" d="m928.7 743.5c2.2-4.7 6.8-7.7 11.9-7.7h7.5l-52.6 104h-10.4z"/>
				</g>
				<path id="&lt;Path&gt;" class="s12" d="m806.5 544.5c22.1-20.2 84.2-15.7 92.4-46.9 8.2-31.1 20.1-92.6 33.5-139.8 13.4-47.2 29-38.2 58-38.2 29 0 34.7 0 72.9 0 38.2 0 49.5 44.3 43.2 74.8-6.4 30.4-12.1 60.1-24.1 109.6-12 49.5-42.4 88.4-99.7 88.4-57.3 0-132.8 0-132.8 0-61.3 0-60.6-32.2-43.4-47.9z"/>
				<path id="&lt;Path&gt;" class="s13" d="m1040.3 534.4c-11.7 19.7-26 28.2-57.3 28.2 0 0-19.6 0-57.8 0-25.2 0-17.2 17.7-8.8 29.8-36.5 0-66.5 0-66.5 0-61.3 0-60.6-32.2-43.4-47.9 22.1-20.2 84.2-15.7 92.4-46.9 8.2-31.1 20.1-92.6 33.5-139.8 13.4-47.2 29-38.2 58-38.2 17 0 26 0 38.1 0 7.4 14.3-1.3 38.9 0.1 48.9 1.6 11.2 12.2 39.6 19.1 72 6.9 32.4 4.3 74.3-7.4 93.9z"/>
			</g>
			<g id="&lt;Group&gt;">
				<path id="&lt;Path&gt;" class="s14" d="m756.2 744.6c0 0-25.9 73.9-27.2 84-1.3 10 4 13.4 3.7 18.1-0.3 4.7-14.1 3-28.2 4-14.1 1-43 0.4-43-3.7 0-4 11.4-4.3 17.4-6.7 6.1-2.3 25.2-14.1 26.9-19.8 3.9-13.1 14.5-75.9 14.5-75.9z"/>
				<path id="&lt;Path&gt;" class="s14" d="m899.6 744.6c0 0-3.1 72.6-2.2 84 0.8 10.1 4 13.4 3.7 18.1-0.4 4.7-14.1 3-28.3 4-14.1 1-43 0.4-43-3.7 0-4 11.5-4.3 17.5-6.7 6.1-2.3 26.5-13.9 26.9-19.8 1-15.5-10.6-75.9-10.6-75.9z"/>
				<path id="&lt;Path&gt;" class="s15" d="m863.6 744.6h36c0 0-0.7 16.6-1.4 35.2l-30.8-14.3c-2.1-11.9-3.8-20.9-3.8-20.9z"/>
				<path id="&lt;Path&gt;" class="s15" d="m720.3 744.6h35.9c0 0-4.9 13.9-10.5 30.5l-28.9-10.8c2-11.3 3.5-19.7 3.5-19.7z"/>
				<path id="&lt;Path&gt;" class="s16" d="m794.5 753h-83.5c0 0 32.5-187.4 41.7-217.9 9.2-30.4 54.5-53.7 177.6-53.7l-15.6 58-87 33.2c0 0-12.3 20.6-15.3 44.6-3.1 24.1-2.4 34.7-10.1 46.7-7.8 12-1.5 20.5-3.6 37.5-2.1 17-4.2 51.6-4.2 51.6z"/>
				<path id="&lt;Path&gt;" class="s17" d="m930.3 481.4l-15.6 58-87 33.2c0 0-12.3 20.6-15.3 44.6-1.3 10.1-1.9 17.7-2.8 24.2-6.1-8.2-20.6-30.7-21.8-62.4-1.5-35.8-9.1-58.1-30.5-53.9 15.9-25.3 63.8-43.7 173-43.7z"/>
				<path id="&lt;Path&gt;" class="s18" d="m720.9 735h63.7"/>
				<path id="&lt;Path&gt;" class="s18" d="m775 735c0 0 6.4-36.1 7.3-49.9 0.9-13.8-3.6-21.2 2.3-36.1 5.8-14.8 7.4-59.9 12.7-76.9 5.3-17 27.2-27.6 27.2-27.6"/>
				<path id="&lt;Path&gt;" class="s19" d="m876.9 362.5l-30.2 86.4c-4.2 11.8-15.3 19.7-27.9 19.7h-131.2l116.1-27.9 27.9-104.7c21.6-5.7 45.3 26.5 45.3 26.5z"/>
				<path id="&lt;Path&gt;" class="s15" d="m858.3 415.7c-8.3-10.5-12.7-39.1-26-42.1-4.2-1-7.2-2.9-9.4-5.1l8.7-32.5c21.6-5.7 45.3 26.5 45.3 26.5z"/>
				<path id="&lt;Path&gt;" class="s20" d="m922.7 265.4c0 0 35.4 7.4 54.5 16.5 19.1 9 24.9 30.7 30 64.7l-37.3 2.1c0 0 17.4 68.3 25.8 92.7 8.5 24.4 26.6 36.8 14.2 39.3-12.4 2.4-113.9 0-130.5 0-16.7 0 4.6-24.1 6.7-38.2 2.1-14.2-1.1-39-9.2-49.2-8.1-10.3-18.8-6.7-17-38.6l-35.4-14.5c0 0 12.4-35.7 35.8-52.7 23.3-17 39.5-20.9 62.4-22.1z"/>
				<path id="&lt;Path&gt;" class="s21" d="m1009.9 480.7c-12.4 2.4-113.9 0-130.5 0-16.7 0 4.6-24.1 6.7-38.2 0.7-4.5 0.8-9.9 0.4-15.6 14-15.9 41.2-30.8 43.1-51.7 2.1-23.3 11.5-46.1 11.5-46.1l-3.7 21.3 42.3-2.2-9.8 0.5c0 0 17.4 68.3 25.8 92.7 8.5 24.4 26.6 36.8 14.2 39.3z"/>
				<path id="&lt;Path&gt;" class="s14" d="m998.9 347.1l-29.1 94.5c-5 16.1-19.8 27-36.7 27h-148.5c0 0 3.9-12.7 14.5-13.8 10.6-1 13.1 1.1 20.5 1.5 7.4 0.3 99.7-21.6 99.7-21.6l25.6-84.3z"/>
				<path id="&lt;Path&gt;" class="s21" d="m855.7 335.3c6-11.6 10.6-19.8 10.6-13.5 0 9.1-5 21.6-6.4 32.9l-13.4-5.5c2.7-3.4 6.2-8.2 9.2-13.9z"/>
				<path id="&lt;Path&gt;" class="s22" d="m944.9 350.4h-7.5c0 0 1.2-19.2 7.5-30.8"/>
				<path id="&lt;Path&gt;" class="s16" d="m1004.2 470.8c0 0 39.8 91.8-21.2 91.8-61 0-88.1 0-88.1 0 0 0 3.1 14.2-0.3 26.1-1.5 5.2-1.7 10.7-0.1 15.9 4.2 14.2 12.1 41.6 14.8 56.1 3.7 20.2 7.4 24.4 10 42.5 2.7 18 14.4 31.3 10.7 49.8h-91.8c0 0-19.1-124.7-25-176.7-5.8-52 18.6-89.6 67.9-89.6 0 0 58.4-8 66.4-11.7z"/>
				<path id="&lt;Path&gt;" class="s18" d="m843.8 735h77.7"/>
				<path id="&lt;Path&gt;" class="s18" d="m897.1 735c0 0 0-26-3.2-43.5-3.2-17.5-6.4-37.6-8.5-50.1-2.1-12.5-3.7-33.7-5.3-49.1-1.6-15.4 1.4-26 2.5-44.1 20.8-4.2 78.7 1.1 97.2-6.3 18.6-7.5 33-12.2 37.2-28.2"/>
				<path id="&lt;Path&gt;" class="s15" d="m944.9 350.4l54-3.3-6.6 21.4c-18-9.5-41.1-8.5-50.6-7.6z"/>
				<path id="&lt;Path&gt;" class="s23" d="m715.4 833.8c5.4-0.1 9.8-0.2 13.5-0.4 0.5 6.5 4.1 9.4 3.8 13.3-0.3 4.7-14.1 3-28.2 4-14.1 1-43 0.4-43-3.7 0-4 11.4-4.3 17.4-6.7 3.9-1.5 12.9-6.7 19.5-11.8 2.2 2.8 6.9 5.4 17 5.3z"/>
				<path id="&lt;Path&gt;" class="s23" d="m883.8 833.8c5.3-0.1 9.8-0.2 13.4-0.4 0.6 6.5 4.1 9.4 3.9 13.3-0.4 4.7-14.1 3-28.3 4-14.1 1-43 0.4-43-3.7 0-4 11.5-4.3 17.5-6.7 3.8-1.5 12.9-6.7 19.5-11.8 2.2 2.8 6.9 5.4 17 5.3z"/>
				<path id="&lt;Path&gt;" class="s14" d="m863.5 231.2c-2.4-16.3 10.7-28.8 27.3-33.2 16.6-4.4 25 11.4 26.3 17.8 1.3 6.4 0.1 27.3 0.1 27.3 0 0 3.6 10.5 8.2 20.6 2.9 6.2 11.7 8.8 18.1 9.9 3.7 0.7 5.8 4.7 4.1 8-7.9 16.1-23.9 43.9-51.3 43.9-22.6 0-21.8-23.2-17-37 2.2-6.2 6.9-11.3 12.9-13.9l6.7-2.8-4.4-11.9-3 1.5c-1.6 0.8-3.5 0.9-5.1 0.3-2.6-0.9-6.2-2.6-8.4-4.8-3.6-3.6-3.9-7.4-6.3-12.8 0 0-7.8-10.3-8.2-12.9z"/>
				<path id="&lt;Path&gt;" class="s24" d="m898.9 271.8l2.9 8.2"/>
				<path id="&lt;Path&gt;" class="s15" d="m894.5 259.9c5.7-3.1 9.8-10.7 11.2-13 1.4-2.3 3.1-0.4 1.2 2.7-1.9 3.1-4.4 15.8-10.4 15.8z"/>
				<path id="&lt;Path&gt;" class="s25" d="m871.4 227c-3.1 1.9-4.3 5.8-2.9 9.2l3.5 8.5-11-7.4c0 0-21.3-3.2-9.8-30.5 11.4-27.3 39.5-14.1 39.5-14.1 22-2.6 34.5 11.7 31.6 25.2-3 13.6-5.1 25.2-5.1 25.2l-4.5-2.9c0 0 2.7-5.6 2.7-10.9 0-5.3-4.8-7.4-6.9-2.6-2.2 4.8 1.8 11.7-1.6 10.3-3.5-1.3-3.2-12.4-5.3-15.1-7.2-8.9-8.3-18-8.3-18-3.8 10.3-15.1 18.7-21.9 23.1z"/>
				<path id="&lt;Path&gt;" class="s25" d="m929.7 181.4c0 10-8.1 18.1-18.1 18.1-9.9 0-18-8.1-18-18.1 0-9.9 8.1-18 18-18 10 0 18.1 8.1 18.1 18z"/>
			</g>
			<path id="&lt;Path&gt;" class="s26" d="m1059.4 488.8h-212.9v-20.2h212.9z"/>
			<g id="&lt;Group&gt;">
				<path id="&lt;Path&gt;" class="s13" d="m892.9 468.6h-306.4v-6.4h306.4z"/>
				<path id="&lt;Path&gt;" class="s12" d="m776.2 468.6h-196.4l-30.8-140.4h196.4z"/>
				<path id="&lt;Path&gt;" class="s13" d="m776.2 468.6h-7.2l-30.8-140.4h7.2z"/>
				<path id="&lt;Path&gt;" class="s27" d="m675.8 398.4c2.2 10.2-4.2 18.4-14.4 18.4-10.2 0-20.2-8.2-22.5-18.4-2.2-10.1 4.2-18.4 14.4-18.4 10.2 0 20.2 8.3 22.5 18.4z"/>
			</g>
			<g id="&lt;Group&gt;">
				<path id="&lt;Path&gt;" class="s12" d="m473.2 408c0 0-12.5-8.9-5.5-20.6 7-11.8 35.7-7.8 37.2-17 1.5-9.2-30.7-8.4-54.8-8.1-24.1 0.4-33.7-1.9-33.7-8 0-7.1 9.1-6.6 8.8-15.5-0.4-10.7-55.7-5-55.7-5 0 0 11.3-3.9 32.7-5.4 15.8-1.2 42.7-3 44.2 9.5 1.5 12.5 11.8 11 32.5 12.5 20.8 1.5 39.4 7.5 38 26.9-1.5 19.3-39.5 6.3-44 16-4.5 9.7 9 14.7 9 14.7z"/>
				<path id="&lt;Path&gt;" class="s27" d="m492.9 403.9l-4.6 57.8c-0.4 3.9-3.6 6.9-7.6 6.9h-12.6-12.7c-3.9 0-7.2-3-7.5-6.9l-4.7-57.8z"/>
			</g>
			<g id="&lt;Group&gt;">
				<path id="&lt;Path&gt;" class="s7" d="m1170.4 161.4v116.5h-166.3v-20.4h-41.3l41.3-26.8v-69.3z"/>
				<path id="&lt;Path&gt;" class="s14" d="m1165.2 155.3v116.5h-166.3v-20.4h-41.4l41.4-26.8v-69.3z"/>
				<text id="&lt;/&gt;
" style="transform: matrix(2,0,0,2,1023.065,237.69)" >
					<tspan x="0" y="0" class="t28" dx="0 2 2 2" >&lt;/&gt;
</tspan>
				</text>
			</g>
			<g id="&lt;Group&gt;">
				<path id="&lt;Path&gt;" class="s7" d="m1292.5 550.8h-152.5v-80.1h152.5z"/>
				<path id="&lt;Path&gt;" class="s14" d="m1286.6 544.4h-152.4v-80.1h152.4z"/>
				<text id="HTML
" style="transform: matrix(2,0,0,2,1159.14,513.836)" >
					<tspan x="0" y="0" class="t29" dx="0 1 1 1 1" >HTML
</tspan>
				</text>
			</g>
			<path id="&lt;Compound Path&gt;" fill-rule="evenodd" class="s30" d="m1209.4 673.5c-1.4 6.2-3.8 12-7.1 17.3l15.1 15.1c-4.9 6.8-10.9 12.7-17.7 17.6l-15.1-15.1c-5.2 3.3-11 5.7-17.2 7.2v21.3q-6.1 1-12.5 1.1-6.4-0.1-12.5-1.1v-21.3c-6.2-1.5-12-3.9-17.2-7.2l-15.2 15.1c-6.7-4.9-12.7-10.8-17.6-17.6l15.1-15.1c-3.3-5.3-5.7-11.1-7.1-17.3h-21.4q-1-6.1-1-12.5 0-6.3 1-12.4h21.4c1.4-6.2 3.8-12.1 7.1-17.3l-15.1-15.1c4.9-6.8 10.9-12.8 17.6-17.6l15.2 15.1c5.2-3.3 11-5.8 17.2-7.2v-21.4q6.1-1 12.5-1 6.4 0 12.5 1v21.4c6.2 1.4 12 3.9 17.2 7.2l15.1-15.1c6.8 4.8 12.8 10.8 17.7 17.6l-15.1 15.1c3.3 5.2 5.7 11.1 7.1 17.3h21.4q1 6.1 1 12.4 0 6.4-1 12.5zm-27-12.5c0-15.2-12.3-27.5-27.5-27.5-15.2 0-27.6 12.3-27.6 27.5 0 15.2 12.4 27.6 27.6 27.6 15.2 0 27.5-12.4 27.5-27.6z"/>
			<path id="&lt;Compound Path&gt;" fill-rule="evenodd" class="s31" d="m1295.2 730.5c-0.5 3.9-1.7 7.7-3.5 11.2l10.2 8.7c-2.7 4.5-6.1 8.5-10.1 12l-10.3-8.7c-3.1 2.3-6.6 4.2-10.4 5.4l1.1 13.4q-3.8 0.9-7.8 1.3-4 0.3-7.8 0l-1.2-13.4c-3.9-0.6-7.7-1.8-11.2-3.6l-8.7 10.3c-4.5-2.7-8.5-6.2-12-10.2l8.7-10.2c-2.3-3.1-4.2-6.7-5.4-10.5l-13.4 1.1q-0.9-3.7-1.3-7.7-0.3-4 0-7.9l13.4-1.1c0.6-4 1.8-7.8 3.6-11.3l-10.3-8.6c2.7-4.6 6.1-8.6 10.1-12l10.3 8.7c3.1-2.4 6.7-4.2 10.5-5.4l-1.1-13.5q3.7-0.9 7.7-1.3 4-0.3 7.9 0l1.1 13.4c4 0.6 7.8 1.8 11.2 3.6l8.7-10.2c4.5 2.7 8.6 6.1 12 10.1l-8.7 10.3c2.4 3.1 4.2 6.6 5.4 10.4l13.5-1.1q0.9 3.8 1.2 7.8 0.4 4 0.1 7.8zm-17.6-6.4c-0.8-9.5-9.2-16.6-18.8-15.8-9.5 0.8-16.6 9.2-15.8 18.7 0.8 9.6 9.2 16.7 18.7 15.9 9.6-0.8 16.7-9.2 15.9-18.8z"/>
			<g id="&lt;Group&gt;">
				<g id="&lt;Group&gt;" style="opacity: .2">
					<path id="&lt;Path&gt;" class="s32" d="m809.2 120.5v138.6c0 10.7-8.8 19.4-19.5 19.4h-96.5c-3.3 0-6.4 1.9-7.9 4.9l-11.9 23.7c-0.8 1.7-3.2 1.7-4.1 0l-11.9-23.7c-1.5-3-4.5-4.9-7.8-4.9h-96.5c-10.8 0-19.5-8.7-19.5-19.4v-138.6c0-10.7 8.7-19.4 19.5-19.4h236.6c10.7 0 19.5 8.7 19.5 19.4z"/>
				</g>
				<g id="&lt;Group&gt;">
					<path id="&lt;Path&gt;" class="s21" d="m804.9 112.6v138.5c0 10.8-8.7 19.5-19.5 19.5h-96.5c-3.3 0-6.3 1.8-7.8 4.8l-12 23.8c-0.8 1.6-3.2 1.6-4 0l-12-23.8c-1.4-3-4.5-4.8-7.8-4.8h-96.5c-10.8 0-19.5-8.7-19.5-19.5v-138.5c0-10.8 8.7-19.5 19.5-19.5h236.6c10.8 0 19.5 8.7 19.5 19.5z"/>
					<path id="&lt;Path&gt;" class="s27" d="m630.7 128.8h-63.8c-2.1 0-3.8-1.7-3.8-3.8 0-2.1 1.7-3.7 3.8-3.7h63.8c2.1 0 3.8 1.6 3.8 3.7 0 2.1-1.7 3.8-3.8 3.8z"/>
					<path id="&lt;Path&gt;" class="s12" d="m657.7 146h-90.8c-2.1 0-3.8-1.7-3.8-3.8 0-2.1 1.7-3.7 3.8-3.7h90.8c2.1 0 3.7 1.6 3.7 3.7 0 2.1-1.6 3.8-3.7 3.8z"/>
					<path id="&lt;Path&gt;" class="s8" d="m764.1 128.8h-116.8c-2.1 0-3.8-1.7-3.8-3.8 0-2.1 1.7-3.7 3.8-3.7h116.8c2.1 0 3.8 1.6 3.8 3.7 0 2.1-1.7 3.8-3.8 3.8z"/>
					<path id="&lt;Path&gt;" class="s12" d="m764.1 146h-90.8c-2.1 0-3.8-1.7-3.8-3.8 0-2.1 1.7-3.7 3.8-3.7h90.8c2.1 0 3.8 1.6 3.8 3.7 0 2.1-1.7 3.8-3.8 3.8z"/>
					<path id="&lt;Path&gt;" class="s14" d="m703.9 159.2h-139c-1 0-1.8-0.8-1.8-1.8 0-1 0.8-1.7 1.8-1.7h139c1 0 1.8 0.7 1.8 1.7 0 1-0.8 1.8-1.8 1.8z"/>
					<path id="&lt;Path&gt;" class="s27" d="m675.3 191.3h-108.4c-2.1 0-3.8-1.7-3.8-3.8 0-2.1 1.7-3.8 3.8-3.8h108.4c2 0 3.7 1.7 3.7 3.8 0 2.1-1.7 3.8-3.7 3.8z"/>
					<path id="&lt;Path&gt;" class="s27" d="m630.7 208.5h-63.8c-2.1 0-3.8-1.7-3.8-3.8 0-2.1 1.7-3.8 3.8-3.8h63.8c2.1 0 3.8 1.7 3.8 3.8 0 2.1-1.7 3.8-3.8 3.8z"/>
					<path id="&lt;Path&gt;" class="s12" d="m657.7 225.7h-90.8c-2.1 0-3.8-1.7-3.8-3.8 0-2.1 1.7-3.8 3.8-3.8h90.8c2.1 0 3.7 1.7 3.7 3.8 0 2.1-1.6 3.8-3.7 3.8z"/>
					<path id="&lt;Path&gt;" class="s8" d="m764.1 208.5h-116.8c-2.1 0-3.8-1.7-3.8-3.8 0-2.1 1.7-3.8 3.8-3.8h116.8c2.1 0 3.8 1.7 3.8 3.8 0 2.1-1.7 3.8-3.8 3.8z"/>
					<path id="&lt;Path&gt;" class="s12" d="m764.1 225.7h-90.8c-2.1 0-3.8-1.7-3.8-3.8 0-2.1 1.7-3.8 3.8-3.8h90.8c2.1 0 3.8 1.7 3.8 3.8 0 2.1-1.7 3.8-3.8 3.8z"/>
					<path id="&lt;Path&gt;" class="s14" d="m703.9 238.9h-139c-1 0-1.8-0.8-1.8-1.8 0-1 0.8-1.8 1.8-1.8h139c1 0 1.8 0.8 1.8 1.8 0 1-0.8 1.8-1.8 1.8z"/>
				</g>
			</g>
			<g id="&lt;Group&gt;">
				<g id="&lt;Group&gt;">
					<path id="&lt;Path&gt;" class="s33" d="m1059.4 488.8h-650.5v-20.2h650.5z"/>
					<g id="&lt;Group&gt;">
						<path id="&lt;Path&gt;" class="s33" d="m888.5 874h-15.4v-385.2h15.4z"/>
						<path id="&lt;Path&gt;" class="s33" d="m1074.9 874h-15.5l-50.1-385.2h15.4z"/>
					</g>
					<g id="&lt;Group&gt;">
						<path id="&lt;Path&gt;" class="s21" d="m873.1 517.6v-28.8h15.4v30.9z"/>
						<path id="&lt;Path&gt;" class="s21" d="m1031.2 538.7l-15.7-2.1-6.2-47.8h15.4z"/>
					</g>
					<g id="&lt;Group&gt;">
						<path id="&lt;Path&gt;" class="s33" d="m450.9 874h-15.4v-385.2h15.4z"/>
						<path id="&lt;Path&gt;" class="s33" d="m637.3 874h-15.5l-50.1-385.2h15.4z"/>
					</g>
					<g id="&lt;Group&gt;">
						<path id="&lt;Path&gt;" class="s21" d="m435.5 517.6v-28.8h15.4v30.9z"/>
						<path id="&lt;Path&gt;" class="s21" d="m593.6 538.7l-15.7-2.1-6.2-47.8h15.4z"/>
					</g>
				</g>
				<g id="&lt;Group&gt;">
					<path id="&lt;Path&gt;" class="s34" d="m418.4 874h49.9"/>
					<path id="&lt;Path&gt;" class="s34" d="m604.5 874h49.9"/>
				</g>
				<g id="&lt;Group&gt;">
					<path id="&lt;Path&gt;" class="s34" d="m854.5 874h49.9"/>
					<path id="&lt;Path&gt;" class="s34" d="m1040.6 874h49.8"/>
				</g>
			</g>
			<g id="&lt;Group&gt;">
				<g id="&lt;Group&gt;">
					<path id="&lt;Path&gt;" class="s35" d="m164.5 669.9c-18.8-17.7-37.9-37.1-25.1-56.9 12.7-19.8 42-13.8 67.2 9.2 25.2 23 27 66.2 27 66.2-6.7-0.3-50.4-0.8-69.1-18.5z"/>
					<path id="&lt;Path&gt;" class="s23" d="m236 613.1c0 0-46.4-29.5-63.8-66.3-17.3-36.8 8.2-64 22.7-68.1 14.5-4.1 45.6 0.4 55.2 41 9.5 40.6-14.1 93.4-14.1 93.4z"/>
					<path id="&lt;Path&gt;" class="s35" d="m307.3 566.6c0 0-13.3-26-19.1-61.6-5.8-35.5 13.8-85.9 60.5-79.6 46.7 6.4 33.2 64.4 11.1 90.2-15.2 17.9-52.5 51-52.5 51z"/>
					<path id="&lt;Path&gt;" class="s36" d="m343 430c0 0-55.8 182.5-65.8 316.9"/>
					<path id="&lt;Path&gt;" class="s37" d="m259.7 655c0 0-4.4-28.7 8.7-59.4 13.1-30.8 38.6-33.6 51-27.6 12.3 6 9.9 34.3-3.6 54.4-13.4 20.2-38.2 28.6-56.1 32.6z"/>
					<path id="&lt;Path&gt;" class="s36" d="m259 744.6c0 0-18.4-146.5-52.4-234.2"/>
					<path id="&lt;Path&gt;" class="s36" d="m168.4 636.3c0 0 35.4 37.8 83.8 62.6"/>
					<path id="&lt;Path&gt;" class="s36" d="m305 588.2c0 0-32 57-58.1 79.4"/>
					<path id="&lt;Path&gt;" class="s14" d="m306.8 682.6c0 0 21.3-108.4 68.6-73.7 40.9 30-26.4 80.2-68.6 73.7z"/>
					<path id="&lt;Path&gt;" class="s36" d="m360.2 626.5c0 0-29.3 49-78.1 69.8"/>
					<path id="&lt;Path&gt;" class="s21" d="m332.7 723.8c-0.6 45.7-8.4 91.4-11.9 109.9-1 4.9-5.3 8.5-10.3 8.5h-31.8-31.7c-5 0-9.4-3.6-10.3-8.5-3.5-18.5-11.4-64.2-11.9-109.9h53.9z"/>
					<path id="&lt;Path&gt;" class="s38" d="m278.7 723.8h54q-0.1 6.7-0.4 13.3c-19.1 3-51 8.7-63.5 15.9-7.8 4.5-24.9 7.2-42.1 8.9-1-12.3-1.8-25.2-1.9-38.1z"/>
				</g>
				<path id="&lt;Path&gt;" class="s36" d="m229.2 842.2h131"/>
			</g>
		</g>
	</g>
</svg>