<?xml version="1.0" encoding="utf-8"?>
<!-- Generator: Adobe Illustrator 25.0.0, SVG Export Plug-In . SVG Version: 6.00 Build 0)  -->
<svg version="1.1" xmlns="http://www.w3.org/2000/svg" xmlns:xlink="http://www.w3.org/1999/xlink" x="0px" y="0px"
	 viewBox="0 0 1024 1024" style="enable-background:new 0 0 1024 1024;" xml:space="preserve">
<style type="text/css">
	.st0{fill:#67F858;}
	.st1{fill:#67F858;}
</style>
<g id="Layer_1">
</g>
<g id="Layer_2">
	<g>
		<path class="st0" d="M743.3,283l103.3-148.6c0,0-96.5-89.8-220.1-96.5l-4.8,183.4C621.7,221.3,696,243.5,743.3,283z"/>
		<path class="st0" d="M732,459.2c0,0,217.9,79.6,122.3,348.9c0,0-72.4,183.9-325.8,162.2l66.6-179.5c0,0,137.5-20.3,59.4-146.2
			L732,459.2z"/>
		<path class="st1" d="M261.7,685.5c0,0,72.4,66.6,122.6,75.3l-5.8,192.1c0,0-155.4-40.5-231.6-129.3L261.7,685.5z"/>
		<path class="st0" d="M265.6,487.6c0,0-116.8-61.8-76.3-264.5c0,0,53.1-204.6,293.4-201.7L265.6,487.6z"/>
		<polygon class="st0" points="557,9.9 325.4,509.8 458.6,557.1 441.2,1006 665.1,445.2 543.5,416.2 		"/>
	</g>
</g>
</svg>
